<svg xmlns="http://www.w3.org/2000/svg" viewBox="0 0 478.972 339.432"><path fill="none" stroke="#000" stroke-width="4.516" d="M0 218.656c71.017 1.354 134.575-36.208 191.68-74.098C268.806 94.824 340.335 30.508 431.818 8.285c15.46-3.574 31.276-5.738 47.155-6.036M0 2.555C60.751.59 120.011 22.085 170.257 54.881c84.396 50.825 160.242 117.61 254.111 151.489 17.758 5.788 36.196 9.137 54.604 12.137"/><path fill="gray" d="M476.879 325.381q.947 1.042 1.447 2.552.51 1.51.51 3.427t-.52 3.438q-.51 1.51-1.437 2.52-.958 1.053-2.27 1.584-1.302.531-2.978.531-1.635 0-2.978-.542-1.333-.541-2.27-1.572-.938-1.032-1.448-2.532-.5-1.5-.5-3.427 0-1.896.5-3.396.5-1.51 1.458-2.583.916-1.02 2.27-1.563 1.364-.541 2.968-.541 1.666 0 2.988.552 1.333.542 2.26 1.552zm-.188 5.98q0-3.022-1.353-4.657-1.354-1.646-3.697-1.646-2.364 0-3.717 1.646-1.344 1.635-1.344 4.656 0 3.052 1.375 4.677 1.374 1.615 3.686 1.615t3.676-1.615q1.374-1.625 1.374-4.677zm-19.119 7.75h-6.123v-1.584h2.03v-12.344h-2.03V323.6h6.123v1.583h-2.03v12.344h2.03zm-13.038-7.74q0 2.114-.927 3.833-.916 1.719-2.447 2.667-1.062.656-2.374.948-1.301.291-3.436.291h-3.915V323.6h3.873q2.27 0 3.603.333 1.343.323 2.27.896 1.583.99 2.468 2.635.885 1.646.885 3.907zm-2.155-.032q0-1.823-.636-3.073-.635-1.25-1.895-1.968-.916-.521-1.947-.719-1.03-.208-2.468-.208h-1.937v11.968h1.937q1.49 0 2.593-.218 1.114-.22 2.04-.813 1.157-.74 1.73-1.948.583-1.208.583-3.02zm-19.11 1.542q0 1.688-.374 2.948-.364 1.25-1.208 2.083-.802.792-1.874 1.157-1.073.364-2.5.364-1.457 0-2.54-.385-1.083-.386-1.822-1.136-.844-.854-1.218-2.062-.365-1.209-.365-2.969V323.6h2.062v9.385q0 1.26.166 1.99.177.729.584 1.323.458.677 1.239 1.02.791.344 1.895.344 1.114 0 1.895-.333.78-.344 1.25-1.031.406-.594.572-1.354.177-.771.177-1.907V323.6h2.062zm-17.994-7.448h-5.54v13.677h-2.061v-13.677h-5.54V323.6h13.141zm-18.588 9.25q0 .906-.427 1.792-.416.885-1.176 1.5-.833.666-1.948 1.041-1.103.375-2.665.375-1.677 0-3.02-.312-1.333-.313-2.718-.927v-2.583h.146q1.177.979 2.718 1.51 1.54.531 2.895.531 1.916 0 2.978-.719 1.072-.718 1.072-1.916 0-1.031-.51-1.521-.5-.49-1.53-.76-.782-.209-1.698-.344-.906-.136-1.926-.344-2.062-.437-3.062-1.49-.989-1.062-.989-2.76 0-1.948 1.645-3.188 1.645-1.25 4.176-1.25 1.635 0 2.999.313 1.364.312 2.415.77v2.438h-.145q-.885-.75-2.333-1.24-1.437-.5-2.947-.5-1.655 0-2.665.688-1 .688-1 1.771 0 .969.5 1.52.5.553 1.76.845.666.145 1.895.354 1.228.208 2.082.427 1.729.458 2.604 1.385.874.927.874 2.594zm-31.324 4.427h-2.551l-7.352-13.875v13.875h-1.926V323.6h3.197l6.706 12.666V323.6h1.926zm-19.65-1.146q-1.27.584-2.78 1.021-1.5.427-2.906.427-1.811 0-3.321-.5-1.51-.5-2.572-1.5-1.073-1.01-1.656-2.52-.583-1.521-.583-3.553 0-3.718 2.166-5.864 2.176-2.157 5.966-2.157 1.323 0 2.697.323 1.385.313 2.978 1.073v2.448h-.187q-.323-.25-.937-.656-.614-.406-1.208-.677-.719-.323-1.635-.531-.906-.22-2.062-.22-2.603 0-4.123 1.678-1.51 1.667-1.51 4.52 0 3.011 1.583 4.688 1.583 1.667 4.31 1.667 1 0 1.99-.198 1-.198 1.749-.51v-3.802h-4.155v-1.813h6.196zm-20.681 1.146h-6.123v-1.583h2.03v-12.344h-2.03V323.6h6.123v1.583h-2.03v12.344h2.03zm-12.997-4.427q0 .906-.427 1.792-.416.885-1.176 1.5-.833.666-1.947 1.041-1.104.375-2.666.375-1.677 0-3.02-.312-1.333-.313-2.717-.927v-2.583h.145q1.177.979 2.718 1.51t2.895.531q1.916 0 2.978-.719 1.072-.718 1.072-1.916 0-1.031-.51-1.521-.5-.49-1.53-.76-.782-.209-1.698-.344-.906-.136-1.926-.344-2.062-.437-3.062-1.49-.989-1.062-.989-2.76 0-1.948 1.645-3.188 1.646-1.25 4.176-1.25 1.635 0 2.999.313 1.364.312 2.416.77v2.438h-.146q-.885-.75-2.333-1.24-1.437-.5-2.946-.5-1.656 0-2.666.688-1 .688-1 1.771 0 .969.5 1.52.5.553 1.76.845.666.145 1.895.354 1.229.208 2.083.427 1.728.458 2.603 1.385.874.927.874 2.594zm-18.765 4.427h-10.215V323.6h10.215v1.833h-8.153v4.25h8.153v1.833h-8.153v5.76h8.153zm-17.786-7.74q0 2.115-.927 3.834-.916 1.719-2.447 2.667-1.062.656-2.374.948-1.301.291-3.436.291h-3.915V323.6h3.873q2.27 0 3.603.333 1.343.323 2.27.896 1.583.99 2.468 2.635.885 1.646.885 3.907zm-2.155-.03q0-1.824-.636-3.074-.635-1.25-1.895-1.968-.916-.521-1.947-.719-1.03-.208-2.468-.208h-1.937v11.968h1.937q1.49 0 2.593-.218 1.114-.22 2.04-.813 1.157-.74 1.73-1.948.583-1.208.583-3.02zm-28.94 7.77h-9.809V323.6h2.062v13.677h7.747zm-16.38 0h-2.198l-1.52-4.323h-6.706l-1.52 4.323h-2.093l5.644-15.51h2.749zm-4.353-6.094l-2.718-7.614-2.728 7.614zm-16.214 6.094h-2.551l-7.352-13.875v13.875h-1.926V323.6h3.197l6.705 12.666V323.6h1.927zm-21.275-13.729q.948 1.042 1.448 2.552.51 1.51.51 3.427t-.52 3.438q-.511 1.51-1.438 2.52-.958 1.053-2.27 1.584-1.301.531-2.978.531-1.635 0-2.978-.542-1.333-.541-2.27-1.572-.937-1.032-1.447-2.532-.5-1.5-.5-3.427 0-1.896.5-3.396.5-1.51 1.458-2.583.916-1.02 2.27-1.563 1.364-.541 2.967-.541 1.666 0 2.989.552 1.332.542 2.26 1.552zm-.187 5.98q0-3.022-1.354-4.657-1.354-1.646-3.696-1.646-2.364 0-3.718 1.646-1.343 1.635-1.343 4.656 0 3.052 1.374 4.677 1.375 1.615 3.687 1.615 2.311 0 3.675-1.615 1.375-1.625 1.375-4.677zm-19.12 7.75h-6.122v-1.584h2.03v-12.344h-2.03V323.6h6.123v1.583h-2.03v12.344h2.03zm-11.788-13.678h-5.54v13.677h-2.061v-13.677h-5.54V323.6h13.141zm-16.38 13.677h-2.198l-1.52-4.323h-6.706l-1.52 4.323h-2.093l5.644-15.51h2.749zm-4.353-6.094l-2.718-7.614-2.728 7.614zm-12.944-7.583h-5.54v13.677h-2.062v-13.677h-5.54V323.6h13.142zm-19.224 7.448q0 1.688-.374 2.948-.365 1.25-1.208 2.083-.802.792-1.875 1.157-1.072.364-2.499.364-1.457 0-2.54-.385-1.083-.386-1.823-1.136-.843-.854-1.218-2.062-.364-1.209-.364-2.969V323.6h2.061v9.385q0 1.26.167 1.99.177.729.583 1.323.458.677 1.24 1.02.79.344 1.894.344 1.114 0 1.895-.333.781-.344 1.25-1.031.406-.594.573-1.354.177-.771.177-1.907V323.6h2.061zm-18.619-4.594q0 1.031-.364 1.917-.354.875-1 1.52-.802.803-1.895 1.21-1.093.395-2.76.395h-2.061v5.781H63.41V323.6h4.207q1.395 0 2.364.24.968.228 1.718.728.885.594 1.364 1.48.49.885.49 2.24zm-2.145.052q0-.802-.281-1.395-.281-.594-.854-.97-.5-.322-1.145-.458-.636-.145-1.614-.145h-2.041v6.198h1.739q1.25 0 2.03-.22.781-.228 1.27-.718.49-.5.688-1.052.208-.552.208-1.24zM55.006 339.11h-2.062v-13.364l-4.311 9.093h-1.229l-4.28-9.093v13.364h-1.926V323.6h2.812l4.134 8.635 3.998-8.635h2.864zm-23.253-13.729q.947 1.042 1.447 2.552.51 1.51.51 3.427t-.52 3.438q-.51 1.51-1.437 2.52-.958 1.053-2.27 1.584-1.302.531-2.978.531-1.635 0-2.978-.542-1.333-.541-2.27-1.572-.938-1.032-1.448-2.532-.5-1.5-.5-3.427 0-1.896.5-3.396.5-1.51 1.458-2.583.916-1.02 2.27-1.563 1.364-.541 2.968-.541 1.666 0 2.988.552 1.333.542 2.26 1.552zm-.188 5.98q0-3.022-1.353-4.657-1.354-1.646-3.697-1.646-2.364 0-3.717 1.646-1.344 1.635-1.344 4.656 0 3.052 1.375 4.677 1.374 1.615 3.686 1.615t3.676-1.615q1.374-1.625 1.374-4.677zm-18.525 6.624q-.573.25-1.042.469-.458.219-1.208.458-.635.198-1.384.334-.74.145-1.635.145-1.687 0-3.072-.468-1.375-.48-2.395-1.49-1-.99-1.562-2.51Q.18 333.39.18 331.37q0-1.917.541-3.428.542-1.51 1.562-2.552.99-1.01 2.385-1.541 1.405-.532 3.113-.532 1.25 0 2.489.303 1.25.302 2.77 1.062v2.448h-.157q-1.28-1.073-2.54-1.563t-2.697-.49q-1.177 0-2.124.386-.938.375-1.677 1.177-.718.782-1.124 1.98-.396 1.187-.396 2.75 0 1.635.437 2.812.448 1.177 1.146 1.917.728.77 1.697 1.146.979.364 2.062.364 1.489 0 2.79-.51 1.302-.51 2.437-1.531h.146z"/><path d="M478.972 304.207h-43.129v-65.283h43.13v7.717h-34.425v17.888h34.424v7.716h-34.424v24.245h34.424zm-83.104-24.596h-27.434v-7.936h27.434zm-67.145 24.596h-10.771l-31.04-58.4v58.4h-8.133v-65.283h13.498l28.313 53.314v-53.314h8.133zm-89.918-24.596H211.37v-7.936h27.434zm-63.408 24.596h-25.851v-6.664h8.573v-51.955h-8.573v-6.664h25.85v6.664h-8.572v51.955h8.573zm-61.825-24.596H86.138v-7.936h27.434zm-63.716 5.962q0 3.815-1.803 7.541-1.758 3.727-4.968 6.314-3.517 2.806-8.221 4.384-4.66 1.578-11.255 1.578-7.078 0-12.75-1.315-5.627-1.315-11.475-3.902V289.3H0q4.968 4.121 11.475 6.357 6.507 2.236 12.222 2.236 8.09 0 12.574-3.025 4.528-3.025 4.528-8.067 0-4.34-2.154-6.401-2.11-2.06-6.463-3.2-3.297-.878-7.166-1.448-3.825-.57-8.134-1.446-8.705-1.842-12.925-6.27-4.177-4.472-4.177-11.618 0-8.199 6.947-13.416 6.946-5.262 17.63-5.262 6.902 0 12.661 1.316 5.76 1.315 10.2 3.244v10.26h-.616q-3.737-3.157-9.848-5.218-6.067-2.104-12.442-2.104-6.99 0-11.255 2.893-4.22 2.894-4.22 7.454 0 4.077 2.11 6.4 2.11 2.324 7.43 3.552 2.814.614 8.002 1.49 5.188.878 8.793 1.798 7.298 1.93 10.99 5.831 3.694 3.902 3.694 10.917z"/></svg>